<svg version="1.2" xmlns="http://www.w3.org/2000/svg" viewBox="0 0 224 50" width="224" height="50">
	<title>New Project</title>
	<style>
		.s0 { fill: #ffbc00 } 
	</style>
	<path id="jObiFy" class="s0" aria-label="jObiFy"  d="m21.2 28.5c0 5-3.2 7.1-6.8 7.1-2.6 0-5.5-1.1-7.5-2.8l-2.4 7.9c2.1 2.1 6.2 3.4 10.5 3.4 7.2 0 15-3.6 15-13.3v-24.2h-8.8zm56.6-3.7c0-13-11.2-19.4-20.7-19.4-9.6 0-20.7 6.4-20.7 19.4 0 13 11.1 19.4 20.7 19.4 9.5 0 20.7-6.4 20.7-19.4zm-8.9 0c0 7.4-6.4 11-11.8 11-5.4 0-11.8-3.6-11.8-11 0-7.5 6.4-11.1 11.8-11.1 5.4 0 11.8 3.6 11.8 11.1zm39.2 18.2c7.3 0 11.1-5.2 11.1-10.5 0-3.5-1.6-7-5-9.2 1.3-1.8 2-4 2-6.2 0-5.3-3.8-10.5-11.4-10.5h-20.1v6.6h18.3c2.9 0 4.4 2 4.4 4 0 2-1.5 4-4.4 4h-18.3v6.5h21.6c2.9 0 4.4 2 4.4 4 0 2.1-1.5 4.1-4.4 4.1h-21.6v7.2zm17.9-36.4v7.3h8.7v-7.3zm0 36.4h8.8v-23.4h-8.8zm16.6-36.4v36.4h8.8v-12.7h20.1v-7.4h-20.1v-9h23.7v-7.3zm36.1 0l15.8 21.7v14.7h8.8v-15l-14.3-21.4zm23.9 9.1l5.1 6 11.4-15.1h-10.3z"/>
</svg>