<svg version="1.2" xmlns="http://www.w3.org/2000/svg" viewBox="0 0 224 50" width="224" height="50">
	<title>New Project</title>
	<style>
		.s0 { fill: #ffbc00 } 
	</style>
	<path id="JOBIFY" class="s0" aria-label="JOBIFY"  d="m30.9 13.4l10.4-0.1q0.2 0 0.3 0.2 0.2 0.1 0.2 0.3v13.7q0 1.7-0.9 3.2-1 1.5-2.6 2.6-1.6 1.1-3.6 1.9-2.1 0.8-4.4 1.2-2.2 0.4-4.5 0.4-2.9 0-5.7-0.6-2.8-0.6-5.1-1.8-2.3-1.1-3.8-2.9-1.4-1.8-1.4-3.9v-0.9q-0.1-0.2 0.1-0.3 0.2-0.2 0.5-0.2h10.3q0.3 0 0.5 0.1 0.1 0.2 0.1 0.4v0.7q0 1.1 1.3 1.9 1.4 0.7 3.2 0.7 1.8 0 3.1-0.7 1.4-0.8 1.4-1.9v-13.6q0-0.2 0.2-0.3 0.2-0.1 0.4-0.1zm10.4 14.1v-13.7h-10.4v13.6q0 1.2-1.5 2.1-1.5 0.9-3.6 0.9-2.1 0-3.6-0.9-1.5-0.8-1.5-2.1v-0.8h-10.3v1q0 2.4 2 4.4 2.1 2.1 5.6 3.3 3.5 1.1 7.8 1.1 4.2 0 7.7-1.2 3.6-1.1 5.7-3.2 2.1-2.1 2.1-4.5zm18.9 8.6q2.9 0.5 5.7 0.5 2.9 0 5.7-0.5 2.9-0.5 5.5-1.5 2.6-1 4.6-2.4 2-1.3 3.1-3.2 1.2-1.9 1.2-4.1 0-2.1-1.2-4-1.1-1.9-3.2-3.2-2-1.4-4.6-2.4-2.5-1-5.4-1.5-2.9-0.5-5.7-0.5-2.8 0-5.7 0.5-2.8 0.5-5.4 1.5-2.6 1-4.6 2.4-2 1.4-3.2 3.3-1.2 1.9-1.2 4 0 2.2 1.2 4.1 1.2 1.8 3.2 3.2 2 1.4 4.6 2.4 2.6 0.9 5.4 1.4zm25.3-11.2q0 2.3-1.6 4.4-1.5 2.1-4.2 3.6-2.6 1.5-6.2 2.4-3.6 0.9-7.6 0.9-4 0-7.6-0.9-3.6-0.9-6.2-2.3-2.6-1.5-4.1-3.6-1.6-2.1-1.6-4.4 0-2.3 1.6-4.4 1.5-2 4.1-3.6 2.6-1.5 6.2-2.4 3.6-0.9 7.6-0.9 5.3 0 9.8 1.5 4.5 1.5 7.1 4.1 2.7 2.6 2.7 5.6zm-13 3.9q2.7-1.6 2.7-3.9 0-2.2-2.7-3.8-2.7-1.5-6.6-1.5-3.8 0-6.5 1.6-2.7 1.5-2.7 3.8 0 2.2 2.7 3.8 2.7 1.6 6.5 1.5 3.9 0 6.6-1.5zm-10.7-8.2q1.9-0.6 4.1-0.6 2.2 0 4.2 0.6 1.9 0.6 3.2 1.7 1.4 1.2 1.4 2.6 0 1.5-1.4 2.6-1.3 1.2-3.3 1.8-1.9 0.6-4.1 0.6-2.1 0-4.1-0.6-2-0.6-3.3-1.7-1.3-1.2-1.3-2.6 0-1.5 1.3-2.6 1.3-1.2 3.3-1.8zm29.1 16l19.2-0.1q2.1 0 4.2-0.5 2.1-0.5 3.9-1.3 1.8-0.9 2.9-2.3 1.1-1.3 1.1-2.9 0-1.5-1.1-2.9-1.2-1.3-3.1-2.3 2.3-1.9 2.3-4 0-1.6-1.1-2.9-1.2-1.4-2.9-2.3-1.8-0.9-3.9-1.4-2.2-0.5-4.3-0.5l-17.2 0.1q-0.3 0-0.4 0.1-0.2 0.1-0.2 0.3v22.5q0 0.1 0.2 0.2 0.1 0.2 0.4 0.2zm19.2-0.5l-19.2 0.1v-22.5l17.2-0.1q2.3 0 4.4 0.6 2.2 0.5 3.8 1.4 1.5 0.9 2.5 2.2 0.9 1.2 0.9 2.5 0 2.3-2.5 4.1 2 0.9 3.2 2.3 1.2 1.3 1.2 2.8 0 1.8-1.5 3.3-1.6 1.5-4.2 2.4-2.7 0.9-5.8 0.9zm-4-17.6l-4.9 0.1v3.8h4.9q1.4 0 2.4-0.5 1-0.6 1-1.4 0-0.9-1-1.4-1-0.6-2.4-0.6zm0 3.5l-4.4 0.1v-3.2h4.4q1.1 0 1.9 0.5 0.9 0.4 0.9 1.1 0 0.6-0.9 1.1-0.8 0.4-1.9 0.4zm1.9 5.4h-6.8v3.9h6.8q1.4 0 2.4-0.6 1-0.6 1-1.4 0-0.8-1-1.4-1-0.5-2.4-0.5zm0 3.5h-6.3v-3.1h6.3q1.1 0 1.9 0.4 0.9 0.5 0.9 1.1 0 0.7-0.8 1.1-0.9 0.5-2 0.5zm18.4-17.3v22.5q0 0.2 0.2 0.3 0.1 0.1 0.4 0.1h10.3q0.2 0 0.3-0.1 0.2-0.2 0.2-0.3v-22.5q0-0.2-0.2-0.3-0.1-0.1-0.3-0.1h-10.3q-0.3 0-0.4 0.1-0.2 0.2-0.2 0.3zm10.9 22.5h-10.3v-22.5h10.3zm7.1-22.5v22.5q0 0.1 0.1 0.3 0.2 0.1 0.4 0.1h10.3q0.3 0 0.4-0.2 0.2-0.1 0.2-0.2v-8.6h18.2q0.2 0 0.4-0.2 0.2-0.1 0.2-0.2v-5q0-0.2-0.2-0.3-0.2-0.1-0.4-0.1h-18.2v-2.8l18.2-0.1q0.2 0 0.4-0.1 0.2-0.1 0.2-0.3v-4.9q0-0.1-0.2-0.2-0.2-0.2-0.4-0.2l-29.1 0.1q-0.2 0-0.4 0.1-0.1 0.1-0.1 0.3zm10.8 22.5h-10.3v-22.5l29.1-0.1v4.9l-18.8 0.1v3.6h18.8v5h-18.8zm19.6-22.3l14.2 14.1v8.1q0 0.2 0.2 0.3 0.2 0.2 0.4 0.2l10.2-0.1q0.2 0 0.3-0.1 0.2-0.1 0.2-0.3v-8.1l14.2-14.2q0.3-0.2 0.1-0.4-0.1-0.2-0.6-0.2h-11.8q-0.1 0-0.2 0.1-0.2 0-0.3 0.1l-7.1 7-7-7q0 0-0.2-0.1-0.2 0-0.3 0h-11.8q-0.4 0-0.6 0.2-0.1 0.2 0.1 0.4zm25 22.2h-10.2v-8.2l-14.3-14.2h11.8l7.5 7.4 7.6-7.5h11.8l-14.2 14.3z"/>
</svg>